<svg id="Capa_1" enable-background="new 0 0 512 512" height="512" viewBox="0 0 512 512" width="512" xmlns="http://www.w3.org/2000/svg"><g><g><path d="m197.411 278.224v32.325h187.89v-22.224c0-5.579-4.523-10.102-10.102-10.102h-177.788z" fill="#ffc250"/></g><g><path d="m395.402 310.549h-167.687l-7.886-25.237c-1.318-4.217-5.224-7.089-9.642-7.089h-65.96c-4.418 0-8.324 2.871-9.642 7.089l-7.886 25.237h-10.102c-5.579 0-10.102 4.523-10.102 10.102v173.748c0 5.579 4.523 10.102 10.102 10.102h278.805c5.579 0 10.102-4.523 10.102-10.102v-173.749c0-5.579-4.523-10.101-10.102-10.101z" fill="#ffe07d"/></g><g><path d="m395.402 310.549h-25.254c5.579 0 10.102 4.523 10.102 10.102v173.748c0 5.579-4.523 10.102-10.102 10.102h25.254c5.579 0 10.102-4.523 10.102-10.102v-173.749c0-5.579-4.523-10.101-10.102-10.101z" fill="#ffd064"/></g><g><path d="m138.821 439.85h80.813v32.325h-80.813z" fill="#b3e59f"/></g><g><g><path d="m393.356 83.588c.579-2.813.884-5.726.884-8.71 0-23.739-19.244-42.982-42.982-42.982-6.741 0-13.118 1.555-18.796 4.321-20.432-17.879-47.18-28.717-76.462-28.717-47.643 0-88.579 28.684-106.502 69.721-44.546.425-80.53 36.652-80.53 81.298 0 44.911 36.407 81.318 81.318 81.318h211.427c44.911 0 81.318-36.407 81.318-81.318.001-33.686-20.483-62.589-49.675-74.931z" fill="#e6f7fe"/></g><g><path d="m393.356 83.588c.579-2.813.884-5.726.884-8.71 0-18.706-11.953-34.613-28.635-40.52-4.762 45.512-29.038 95.581-70.515 137.058-37.213 37.214-81.342 60.572-122.891 68.422h189.514c44.911 0 81.318-36.407 81.318-81.318.001-33.687-20.483-62.59-49.675-74.932z" fill="#d3effd"/></g></g><g><g><path d="m208.522 239.837v120.201h94.956v-120.201h23.233l-70.711-81.831-70.711 81.831z" fill="#e27f86"/></g><g><path d="m326.711 239.837-40.836-47.258c-9.743 53.318-39.094 119.279-77.353 141.876v25.584h94.955v-120.202z" fill="#df646e"/></g></g><g><path d="m405.5 466.01c-4.143 0-7.5 3.357-7.5 7.5v20.89c0 1.434-1.166 2.6-2.6 2.6h-278.8c-1.434 0-2.6-1.166-2.6-2.6v-109.7c0-4.143-3.357-7.5-7.5-7.5s-7.5 3.357-7.5 7.5v109.7c0 9.704 7.896 17.6 17.6 17.6h278.8c9.704 0 17.6-7.896 17.6-17.6v-20.89c0-4.143-3.357-7.5-7.5-7.5z"/><path d="m219.634 479.675c4.143 0 7.5-3.357 7.5-7.5v-32.325c0-4.143-3.357-7.5-7.5-7.5h-80.812c-4.143 0-7.5 3.357-7.5 7.5v32.325c0 4.143 3.357 7.5 7.5 7.5zm-73.313-32.325h65.812v17.325h-65.812z"/><path d="m401.564 79.124c.117-1.404.176-2.821.176-4.244 0-27.835-22.646-50.479-50.48-50.479-6.059 0-11.924 1.045-17.499 3.113-21.96-17.777-49.388-27.514-77.761-27.514-47.589 0-90.798 27.279-111.386 69.895-21.732 1.365-41.966 10.533-57.412 26.112-16.594 16.738-25.732 38.938-25.732 62.513 0 48.976 39.845 88.82 88.82 88.82h50.732v23.38h-56.792c-7.754 0-14.506 4.969-16.799 12.353l-6.245 19.978h-4.586c-9.704 0-17.6 7.896-17.6 17.601v29.05c0 4.143 3.357 7.5 7.5 7.5s7.5-3.357 7.5-7.5v-29.05c0-1.434 1.166-2.601 2.6-2.601h10.1c3.28 0 6.18-2.132 7.158-5.263l7.894-25.253c.338-1.085 1.333-1.814 2.479-1.814h56.792v74.318c0 4.143 3.357 7.5 7.5 7.5h94.955c4.143 0 7.5-3.357 7.5-7.5v-74.314h64.222c1.435 0 2.602 1.167 2.602 2.602v14.725h-51.092c-4.143 0-7.5 3.357-7.5 7.5s3.357 7.5 7.5 7.5h68.69c1.434 0 2.6 1.167 2.6 2.601v117.857c0 4.143 3.357 7.5 7.5 7.5s7.5-3.357 7.5-7.5v-117.86c0-9.705-7.896-17.601-17.6-17.601h-2.6v-14.725c0-9.705-7.896-17.602-17.602-17.602h-64.222v-23.382h50.732c15.946 0 31.585-4.273 45.225-12.357 3.563-2.112 4.739-6.713 2.628-10.276-2.112-3.562-6.713-4.738-10.276-2.628-11.326 6.713-24.319 10.262-37.576 10.262h-31.565l-68.47-79.237c-1.425-1.649-3.496-2.597-5.675-2.597s-4.25.947-5.675 2.597l-68.47 79.237h-31.564c-40.705 0-73.82-33.115-73.82-73.82 0-40.304 32.794-73.41 73.103-73.8 2.955-.029 5.618-1.79 6.801-4.498 17.304-39.622 56.409-65.223 99.626-65.223 26.327 0 51.727 9.54 71.521 26.863 2.271 1.988 5.514 2.422 8.227 1.098 4.846-2.362 10.064-3.561 15.513-3.561 19.564 0 35.48 15.916 35.48 35.479 0 2.451-.246 4.862-.73 7.167-.738 3.512 1.114 7.055 4.42 8.451 27.397 11.578 45.101 38.278 45.101 68.021 0 15.165-4.556 29.721-13.175 42.094-2.367 3.399-1.531 8.073 1.867 10.441 3.402 2.369 8.074 1.53 10.441-1.867 10.38-14.901 15.866-32.422 15.866-50.668-.001-33.829-19.037-64.387-48.967-79.394zm-145.564 90.353 54.318 62.86h-6.841c-4.143 0-7.5 3.357-7.5 7.5v112.701h-79.955v-112.701c0-4.143-3.357-7.5-7.5-7.5h-6.841z"/></g></g></svg>