<svg width="60" height="60" viewBox="0 0 60 60" fill="none" xmlns="http://www.w3.org/2000/svg">
<g clip-path="url(#clip0)">
<path d="M9.77339 55.3575L55.2883 50.3131C57.4767 50.0706 59.054 48.1 58.8115 45.9116L54.6281 8.16564C54.3855 5.97729 52.4149 4.39987 50.2267 4.64246L4.71174 9.68693C2.52339 9.92952 0.945976 11.9001 1.18856 14.0883L5.37198 51.8344C5.61445 54.0227 7.58504 55.6001 9.77339 55.3575Z" fill="url(#paint0_linear)"/>
<path d="M1.18856 14.0885L2.83797 28.9748L6.50409 9.48847L4.71103 9.68706C2.52338 9.92918 0.946325 11.8995 1.18856 14.0885Z" fill="url(#paint1_linear)"/>
<path d="M3.25022 48.3459L48.2545 56.8122C50.4182 57.2193 52.5023 55.7952 52.9094 53.6314L59.9306 16.3089C60.3376 14.1452 58.9135 12.0611 56.7498 11.654L11.7455 3.18764C9.58175 2.78058 7.49763 4.2047 7.09057 6.36847L0.0693932 43.6909C-0.337666 45.8548 1.08646 47.9389 3.25022 48.3459Z" fill="url(#paint2_linear)"/>
<path d="M6.12988 11.476V48.8876L3.25036 48.3459C1.08659 47.9388 -0.337519 45.8547 0.0695391 43.6909L6.12988 11.476Z" fill="url(#paint3_linear)"/>
<path d="M53.1235 52.4926L52.9093 53.6314C52.5022 55.7952 50.4181 57.2193 48.2544 56.8122L25.2926 52.4926H53.1235Z" fill="url(#paint4_linear)"/>
<path d="M10.1165 52.7254H55.91C58.1118 52.7254 59.8966 50.9406 59.8966 48.7388V10.7616C59.8966 8.55988 58.1118 6.77505 55.91 6.77505H10.1165C7.9147 6.77505 6.12988 8.55988 6.12988 10.7616V48.7388C6.12988 50.9406 7.9147 52.7254 10.1165 52.7254Z" fill="url(#paint5_linear)"/>
<path d="M13.8495 48.9795H52.1768C54.0195 48.9795 55.5134 47.4857 55.5134 45.6429V13.8576C55.5134 12.0149 54.0195 10.5211 52.1768 10.5211H13.8495C12.0068 10.5211 10.5129 12.0149 10.5129 13.8576V45.6429C10.5129 47.4857 12.0068 48.9795 13.8495 48.9795Z" fill="url(#paint6_linear)"/>
<path d="M30.3448 48.9795H52.1762C54.0193 48.9795 55.5139 47.4861 55.5139 45.6432V40.4326L49.9748 33.6999C48.1468 31.476 44.7442 31.476 42.9149 33.6999L39.4661 37.8928L30.3448 48.9795Z" fill="url(#paint7_linear)"/>
<path d="M10.5126 37.2647V45.6432C10.5126 47.4862 12.0071 48.9795 13.8502 48.9795H48.5876L39.4662 37.8928L28.2608 24.2713C26.4328 22.0487 23.0289 22.0487 21.2009 24.2713L10.5126 37.2647Z" fill="url(#paint8_linear)"/>
<path d="M43.8559 23.3104C41.2427 23.3104 39.1242 21.1919 39.1242 18.5787C39.1242 15.9655 41.2427 13.8471 43.8559 13.8471C46.4691 13.8471 48.5875 15.9655 48.5875 18.5787C48.5875 21.1919 46.4691 23.3104 43.8559 23.3104Z" fill="url(#paint9_linear)"/>
</g>
<defs>
<linearGradient id="paint0_linear" x1="44.6691" y1="11.6673" x2="10.8308" y2="53.9268" gradientUnits="userSpaceOnUse">
<stop stop-color="#FFA936"/>
<stop offset="0.4112" stop-color="#FF8548"/>
<stop offset="0.7781" stop-color="#FF6C54"/>
<stop offset="1" stop-color="#FF6359"/>
</linearGradient>
<linearGradient id="paint1_linear" x1="2.29562" y1="18.7076" x2="5.12585" y2="19.332" gradientUnits="userSpaceOnUse">
<stop stop-color="#F82814" stop-opacity="0"/>
<stop offset="1" stop-color="#C0272D"/>
</linearGradient>
<linearGradient id="paint2_linear" x1="49.3842" y1="16.7556" x2="4.67477" y2="47.3019" gradientUnits="userSpaceOnUse">
<stop stop-color="#CDEC7A"/>
<stop offset="0.2157" stop-color="#B0E995"/>
<stop offset="0.5613" stop-color="#87E4BB"/>
<stop offset="0.8347" stop-color="#6EE1D2"/>
<stop offset="1" stop-color="#65E0DB"/>
</linearGradient>
<linearGradient id="paint3_linear" x1="2.15507" y1="30.1819" x2="6.98388" y2="30.1819" gradientUnits="userSpaceOnUse">
<stop stop-color="#CDEC7A" stop-opacity="0"/>
<stop offset="0.2354" stop-color="#9AD57D" stop-opacity="0.235"/>
<stop offset="0.6035" stop-color="#51B482" stop-opacity="0.604"/>
<stop offset="0.8679" stop-color="#239F85" stop-opacity="0.868"/>
<stop offset="1" stop-color="#119786"/>
</linearGradient>
<linearGradient id="paint4_linear" x1="39.2081" y1="54.9314" x2="39.2081" y2="52.0707" gradientUnits="userSpaceOnUse">
<stop stop-color="#CDEC7A" stop-opacity="0"/>
<stop offset="0.2354" stop-color="#9AD57D" stop-opacity="0.235"/>
<stop offset="0.6035" stop-color="#51B482" stop-opacity="0.604"/>
<stop offset="0.8679" stop-color="#239F85" stop-opacity="0.868"/>
<stop offset="1" stop-color="#119786"/>
</linearGradient>
<linearGradient id="paint5_linear" x1="49.616" y1="13.1474" x2="11.3374" y2="51.426" gradientUnits="userSpaceOnUse">
<stop stop-color="#F8F6FB"/>
<stop offset="1" stop-color="#EFDCFB"/>
</linearGradient>
<linearGradient id="paint6_linear" x1="46.7332" y1="11.9006" x2="9.39857" y2="60.4731" gradientUnits="userSpaceOnUse">
<stop stop-color="#18CEFB"/>
<stop offset="0.2969" stop-color="#2BB9F9"/>
<stop offset="0.7345" stop-color="#42A0F7"/>
<stop offset="1" stop-color="#4A97F6"/>
</linearGradient>
<linearGradient id="paint7_linear" x1="51.1073" y1="37.2388" x2="34.751" y2="58.5184" gradientUnits="userSpaceOnUse">
<stop stop-color="#CDEC7A"/>
<stop offset="0.2154" stop-color="#B0E995" stop-opacity="0.784"/>
<stop offset="0.5604" stop-color="#87E4BB" stop-opacity="0.439"/>
<stop offset="0.8334" stop-color="#6EE1D2" stop-opacity="0.165"/>
<stop offset="0.9985" stop-color="#65E0DB" stop-opacity="0"/>
</linearGradient>
<linearGradient id="paint8_linear" x1="36.6091" y1="33.9381" x2="16.8824" y2="59.6026" gradientUnits="userSpaceOnUse">
<stop stop-color="#CDEC7A"/>
<stop offset="0.2157" stop-color="#B0E995"/>
<stop offset="0.5613" stop-color="#87E4BB"/>
<stop offset="0.8347" stop-color="#6EE1D2"/>
<stop offset="1" stop-color="#65E0DB"/>
</linearGradient>
<linearGradient id="paint9_linear" x1="46.2068" y1="15.5202" x2="39.8096" y2="23.8431" gradientUnits="userSpaceOnUse">
<stop stop-color="#FFD945"/>
<stop offset="0.3043" stop-color="#FFCD3E"/>
<stop offset="0.8558" stop-color="#FFAD2B"/>
<stop offset="1" stop-color="#FFA325"/>
</linearGradient>
<clipPath id="clip0">
<rect width="60" height="60" fill="white" transform="matrix(-1 0 0 1 60 0)"/>
</clipPath>
</defs>
</svg>
